<?xml version="1.0" encoding="UTF-8" standalone="no"?>
<!-- Created with Inkscape (http://www.inkscape.org/) -->

<svg
   width="72mm"
   height="45mm"
   viewBox="0 0 72 45"
   version="1.1"
   id="svg862"
   sodipodi:docname="sandsharkpink.svg"
   inkscape:version="1.1.1 (3bf5ae0d25, 2021-09-20)"
   xmlns:inkscape="http://www.inkscape.org/namespaces/inkscape"
   xmlns:sodipodi="http://sodipodi.sourceforge.net/DTD/sodipodi-0.dtd"
   xmlns="http://www.w3.org/2000/svg"
   xmlns:svg="http://www.w3.org/2000/svg">
  <sodipodi:namedview
     id="namedview864"
     pagecolor="#ffffff"
     bordercolor="#666666"
     borderopacity="1.0"
     inkscape:pageshadow="2"
     inkscape:pageopacity="0.0"
     inkscape:pagecheckerboard="0"
     inkscape:document-units="mm"
     showgrid="false"
     width="50mm"
     inkscape:zoom="2.5620932"
     inkscape:cx="98.552233"
     inkscape:cy="101.28437"
     inkscape:window-width="1860"
     inkscape:window-height="1177"
     inkscape:window-x="52"
     inkscape:window-y="-8"
     inkscape:window-maximized="1"
     inkscape:current-layer="layer1" />
  <defs
     id="defs859" />
  <g
     inkscape:label="Layer 1"
     inkscape:groupmode="layer"
     id="layer1">
    <path
       id="path3073-1-2"
       style="fill:none;stroke:#f4a891;stroke-width:2;stroke-linecap:round;stroke-linejoin:miter;stroke-miterlimit:4;stroke-dasharray:none;stroke-opacity:1"
       d="m 42.920041,36.129236 c 4.680601,2.849483 9.218035,2.593448 13.647743,0 m -27.295509,0 c 4.680595,-2.849483 9.218052,-2.593448 13.647766,0 m -27.295532,0 c 4.680595,2.849483 9.218049,2.593448 13.647766,0 m 27.295509,0 c 4.68059,-2.849483 9.21805,-2.593448 13.64775,0 m -68.2387909,0 c 4.680595,-2.849483 9.2180489,-2.593448 13.6477659,0"
       inkscape:export-filename="C:\Users\cassa\Dropbox\By Me\_Portfolio\_Site\design\shark_thick.png"
       inkscape:export-xdpi="96"
       inkscape:export-ydpi="96" />
    <circle
       style="fill:#f4a891;fill-opacity:1;stroke:#f4a891;stroke-width:1;stroke-linecap:round;stroke-miterlimit:4;stroke-dasharray:none;stroke-opacity:1"
       id="path5913"
       cx="10.123598"
       cy="37.800488"
       r="0.69370717"
       inkscape:export-filename="C:\Users\cassa\Dropbox\By Me\_Portfolio\_Site\design\shark_thick.png"
       inkscape:export-xdpi="96"
       inkscape:export-ydpi="96" />
    <circle
       style="fill:#f4a891;fill-opacity:1;stroke:#f4a891;stroke-width:1;stroke-linecap:round;stroke-miterlimit:4;stroke-dasharray:none;stroke-opacity:1"
       id="path5913-5"
       cx="12.671681"
       cy="39.789604"
       r="0.69370717"
       inkscape:export-filename="C:\Users\cassa\Dropbox\By Me\_Portfolio\_Site\design\shark_thick.png"
       inkscape:export-xdpi="96"
       inkscape:export-ydpi="96" />
    <circle
       style="fill:#f4a891;fill-opacity:1;stroke:#f4a891;stroke-width:1;stroke-linecap:round;stroke-miterlimit:4;stroke-dasharray:none;stroke-opacity:1"
       id="path5913-5-8"
       cx="35.507641"
       cy="37.402798"
       r="0.69370717"
       inkscape:export-filename="C:\Users\cassa\Dropbox\By Me\_Portfolio\_Site\design\shark_thick.png"
       inkscape:export-xdpi="96"
       inkscape:export-ydpi="96" />
    <circle
       style="fill:#f4a891;fill-opacity:1;stroke:#f4a891;stroke-width:1;stroke-linecap:round;stroke-miterlimit:4;stroke-dasharray:none;stroke-opacity:1"
       id="path5913-5-8-0"
       cx="62.052147"
       cy="37.256748"
       r="0.69370717"
       inkscape:export-filename="C:\Users\cassa\Dropbox\By Me\_Portfolio\_Site\design\shark_thick.png"
       inkscape:export-xdpi="96"
       inkscape:export-ydpi="96" />
    <circle
       style="fill:#f4a891;fill-opacity:1;stroke:#f4a891;stroke-width:1;stroke-linecap:round;stroke-miterlimit:4;stroke-dasharray:none;stroke-opacity:1"
       id="path5913-5-8-0-7"
       cx="64.590187"
       cy="39.276318"
       r="0.69370717"
       inkscape:export-filename="C:\Users\cassa\Dropbox\By Me\_Portfolio\_Site\design\shark_thick.png"
       inkscape:export-xdpi="96"
       inkscape:export-ydpi="96" />
    <circle
       style="fill:#f4a891;fill-opacity:1;stroke:#f4a891;stroke-width:1;stroke-linecap:round;stroke-miterlimit:4;stroke-dasharray:none;stroke-opacity:1"
       id="path5913-5-8-0-7-9"
       cx="59.693428"
       cy="40.12233"
       inkscape:export-filename="C:\Users\cassa\Dropbox\By Me\_Portfolio\_Site\design\shark_thick.png"
       inkscape:export-xdpi="96"
       inkscape:export-ydpi="96"
       r="0.69370717" />
    <circle
       style="fill:#f4a891;fill-opacity:1;stroke:#f4a891;stroke-width:1;stroke-linecap:round;stroke-miterlimit:4;stroke-dasharray:none;stroke-opacity:1"
       id="path5913-5-8-0-7-9-6"
       cx="38.471291"
       cy="39.057243"
       r="0.69370717"
       inkscape:export-filename="C:\Users\cassa\Dropbox\By Me\_Portfolio\_Site\design\shark_thick.png"
       inkscape:export-xdpi="96"
       inkscape:export-ydpi="96" />
    <circle
       style="fill:#f4a891;fill-opacity:1;stroke:#f4a891;stroke-width:1;stroke-linecap:round;stroke-miterlimit:4;stroke-dasharray:none;stroke-opacity:1"
       id="path5913-5-8-0-7-9-6-1"
       cx="6.8351269"
       cy="39.739498"
       r="0.69370717"
       inkscape:export-filename="C:\Users\cassa\Dropbox\By Me\_Portfolio\_Site\design\shark_thick.png"
       inkscape:export-xdpi="96"
       inkscape:export-ydpi="96" />
    <path
       id="path17031-6-2-9"
       style="fill:none;stroke:#f4a891;stroke-width:2;stroke-linecap:round;stroke-linejoin:miter;stroke-miterlimit:4;stroke-dasharray:none;stroke-opacity:1"
       d="m 33.476455,25.367416 c 0,0 0.01563,3.287552 3.214116,4.174576 m -1.315549,-5.708035 c 0,0 0.01563,3.287552 3.214116,4.174576 m -0.887164,-5.926002 c 0,0 0.01563,3.287552 3.214116,4.174576 m -13.724651,-4.920891 2.467993,-4.150021 m 17.980205,20.521326 c 0,0 -0.112371,-2.726553 2.530753,-5.79317 3.966514,-4.602046 7.690694,-10.375071 7.287234,-10.813918 -0.88407,-0.961619 -3.883407,-0.869956 -5.536493,-0.896804 -5.494321,-0.262432 -10.600382,3.345285 -5.932452,-0.481498 1.123187,-0.920792 2.320351,-1.695007 3.63466,-2.376043 4.09786,-2.123388 7.879715,-1.668581 9.577435,-1.827305 1.61889,-0.151355 2.77363,-6.0671769 2.7479,-7.5563094 -0.0339,-1.961983 -2.97165,-1.058697 -2.97165,-1.058697 0,0 -17.483083,3.1426334 -22.17964,4.8571624 -4.696565,1.71452 -7.137952,5.425256 -7.137952,5.425256 0,0 -6.077277,-1.303599 -11.112613,0.994071 -2.866781,1.308138 -5.597421,3.197154 -7.210967,5.43596 -1.4631479,2.030129 0.99181,1.730769 3.667261,1.841061 2.80739,0.115731 5.665232,0.280736 6.319939,1.397486 0,0 -3.290414,4.9332 -4.238107,9.56655"
       sodipodi:nodetypes="cccccccccsscsssscscssscc"
       inkscape:export-filename="C:\Users\cassa\Dropbox\By Me\_Portfolio\_Site\design\shark_thick.png"
       inkscape:export-xdpi="96"
       inkscape:export-ydpi="96" />
    <path
       style="fill:none;stroke:#f4a891;stroke-width:2;stroke-linecap:round;stroke-linejoin:miter;stroke-miterlimit:4;stroke-dasharray:none;stroke-opacity:1"
       d="m 42.753127,15.231909 v 1.588019"
       id="path22890"
       inkscape:export-filename="C:\Users\cassa\Dropbox\By Me\_Portfolio\_Site\design\shark_thick.png"
       inkscape:export-xdpi="96"
       inkscape:export-ydpi="96" />
  </g>
</svg>
